HIERARCHY
ROOT Hips
{
	OFFSET 0.000000 0.000000 0.000000
	CHANNELS 6 Xposition Yposition Zposition Zrotation Yrotation Xrotation 
	JOINT LHipJoint
	{
		OFFSET 0.000000 0.000000 0.000000
		CHANNELS 3 Zrotation Yrotation Xrotation
		JOINT LeftUpLeg
		{
			OFFSET 1.363060 -1.794630 0.839290
			CHANNELS 3 Zrotation Yrotation Xrotation
			JOINT LeftLeg
			{
				OFFSET 2.448110 -6.726130 0.000000
				CHANNELS 3 Zrotation Yrotation Xrotation
				JOINT LeftFoot
				{
					OFFSET 2.562200 -7.039590 0.000000
					CHANNELS 3 Zrotation Yrotation Xrotation
					JOINT LeftToeBase
					{
						OFFSET 0.157640 -0.433110 2.322550
						CHANNELS 3 Zrotation Yrotation Xrotation
						End Site
						{
							OFFSET 0.000000 0.000000 0.000000
						}
					}
				}
			}
		}
	}
	JOINT RHipJoint
	{
		OFFSET 0.000000 0.000000 0.000000
		CHANNELS 3 Zrotation Yrotation Xrotation
		JOINT RightUpLeg
		{
			OFFSET -1.305520 -1.794630 0.839290
			CHANNELS 3 Zrotation Yrotation Xrotation
			JOINT RightLeg
			{
				OFFSET -2.542530 -6.985550 0.000000
				CHANNELS 3 Zrotation Yrotation Xrotation
				JOINT RightFoot
				{
					OFFSET -2.568260 -7.056230 0.000000
					CHANNELS 3 Zrotation Yrotation Xrotation
					JOINT RightToeBase
					{
						OFFSET -0.164730 -0.452590 2.363150
						CHANNELS 3 Zrotation Yrotation Xrotation
						End Site
						{
							OFFSET 0.000000 0.000000 0.000000
						}
					}
				}
			}
		}
	}
	JOINT LowerBack
	{
		OFFSET 0.000000 0.000000 0.000000
		CHANNELS 3 Zrotation Yrotation Xrotation
		JOINT Spine
		{
			OFFSET 0.028270 2.035590 -0.193380
			CHANNELS 3 Zrotation Yrotation Xrotation
			JOINT Spine1
			{
				OFFSET 0.056720 2.048850 -0.042750
				CHANNELS 3 Zrotation Yrotation Xrotation
				JOINT Neck
				{
					OFFSET 0.000000 0.000000 0.000000
					CHANNELS 3 Zrotation Yrotation Xrotation
					JOINT Neck1
					{
						OFFSET -0.054170 1.746240 0.172020
						CHANNELS 3 Zrotation Yrotation Xrotation
						JOINT Head
						{
							OFFSET 0.104070 1.761360 -0.123970
							CHANNELS 3 Zrotation Yrotation Xrotation
							End Site
							{
								OFFSET 0.000000 0.000000 0.000000
							}
						}
					}
				}
				JOINT LeftShoulder
				{
					OFFSET 0.000000 0.000000 0.000000
					CHANNELS 3 Zrotation Yrotation Xrotation
					JOINT LeftArm
					{
						OFFSET 3.362410 1.200890 -0.311210
						CHANNELS 3 Zrotation Yrotation Xrotation
						JOINT LeftForeArm
						{
							OFFSET 4.983000 -0.000000 -0.000000
							CHANNELS 3 Zrotation Yrotation Xrotation
							JOINT LeftHand
							{
								OFFSET 3.483560 -0.000000 -0.000000
								CHANNELS 3 Zrotation Yrotation Xrotation
								JOINT LeftFingerBase
								{
									OFFSET 0.000000 0.000000 0.000000
									CHANNELS 3 Zrotation Yrotation Xrotation
									JOINT LeftHandIndex1
									{
										OFFSET 0.715260 -0.000000 -0.000000
										CHANNELS 3 Zrotation Yrotation Xrotation
										End Site
										{
											OFFSET 0.000000 0.000000 0.000000
										}
									}
								}
								JOINT LThumb
								{
									OFFSET 0.000000 0.000000 0.000000
									CHANNELS 3 Zrotation Yrotation Xrotation
									End Site
									{
										OFFSET 0.000000 0.000000 0.000000
									}
								}
							}
						}
					}
				}
				JOINT RightShoulder
				{
					OFFSET 0.000000 0.000000 0.000000
					CHANNELS 3 Zrotation Yrotation Xrotation
					JOINT RightArm
					{
						OFFSET -3.136600 1.374050 -0.404650
						CHANNELS 3 Zrotation Yrotation Xrotation
						JOINT RightForeArm
						{
							OFFSET -5.241900 -0.000000 -0.000000
							CHANNELS 3 Zrotation Yrotation Xrotation
							JOINT RightHand
							{
								OFFSET -3.444170 -0.000000 -0.000000
								CHANNELS 3 Zrotation Yrotation Xrotation
								JOINT RightFingerBase
								{
									OFFSET 0.000000 0.000000 0.000000
									CHANNELS 3 Zrotation Yrotation Xrotation
									JOINT RightHandIndex1
									{
										OFFSET -0.622530 -0.000000 -0.000000
										CHANNELS 3 Zrotation Yrotation Xrotation
										End Site
										{
											OFFSET 0.000000 0.000000 0.000000
										}
									}
								}
								JOINT RThumb
								{
									OFFSET 0.000000 0.000000 0.000000
									CHANNELS 3 Zrotation Yrotation Xrotation
									End Site
									{
										OFFSET 0.000000 0.000000 0.000000
									}
								}
							}
						}
					}
				}
			}
		}
	}
}
MOTION
Frames: 8
Frame Time: 0.008333
-4.699086 18.059503 -2.960648 -3.924979 -6.556213 32.853575 4.876424 -2.357268 -7.433112 -18.592180 -5.068722 -28.976877 2.543737 15.410831 41.495806 0.171789 2.639480 7.576405 0.490800 -4.491800 -12.464400 -7.416922 0.910685 -8.010056 25.283707 11.636243 -41.908632 2.960376 -12.397746 23.918864 2.293405 -12.204594 2.631435 -0.038000 -1.257500 3.457600 1.588865 -1.322818 7.213027 9.235846 2.297513 -50.962790 -3.820691 -1.495933 -0.790397 4.476172 9.535936 -10.264504 -1.836923 17.734116 41.687129 -0.934200 7.486800 25.398900 -15.127110 -11.158105 5.779625 -64.391886 -28.498171 61.900182 154.329639 -31.086893 -110.739554 3.398759 5.039054 -25.884237 41.405237 32.991518 21.071600 -7.125000 0.000000 0.000000 5.979800 67.593800 3.253700 10.858203 12.416750 7.639091 77.889355 -23.878030 7.024128 -30.470894 30.240296 -4.760517 -1.302339 -4.855751 11.662986 -13.107533 -16.044422 2.481800 7.125000 0.000000 0.000000 12.488100 -40.812100 1.312800 
-4.726806 18.065570 -2.887424 -4.053844 -6.561734 32.990674 5.080055 -2.428032 -7.582908 -18.388738 -4.681617 -30.149813 3.068436 15.986391 43.260398 0.212855 2.488630 9.178339 0.383600 -3.977500 -11.013500 -7.448833 0.871327 -7.957495 25.704167 11.466772 -41.754051 2.994554 -12.289476 23.754389 2.202371 -11.899778 2.639168 -0.035500 -1.216000 3.343300 1.879759 -1.174188 7.197283 8.955477 2.327485 -50.977614 -4.016367 -1.413139 -0.776000 4.508124 9.489315 -10.305813 -1.677214 17.575647 41.635748 -0.868800 7.452300 25.257500 -15.099658 -11.138459 5.794314 -64.470678 -28.545981 61.944146 154.253541 -31.141730 -110.723305 3.418020 4.971040 -25.967258 41.107791 32.520291 20.634300 -7.125000 0.000000 0.000000 5.717000 67.024200 3.036000 10.915388 12.430742 7.640097 78.061151 -23.933801 7.279327 -30.633280 30.406145 -4.790054 -1.245036 -4.836870 11.567626 -12.856372 -15.934020 2.423600 7.125000 0.000000 0.000000 12.651300 -40.718200 1.360500 
-4.753167 18.066407 -2.814828 -4.247123 -6.533779 33.123928 5.285176 -2.498568 -7.734079 -18.107454 -4.360568 -31.284907 3.590846 16.526385 44.937292 0.211662 2.498190 10.685935 0.301800 -3.532200 -9.764200 -7.474247 0.822429 -7.899656 26.267455 11.167531 -41.641639 3.032432 -12.177179 23.590727 2.067727 -11.456693 2.686902 -0.033400 -1.179000 3.241600 2.249541 -1.023935 7.179671 8.720409 2.375736 -50.964521 -4.255123 -1.330339 -0.749115 4.477981 9.431094 -10.390466 -1.501491 17.398629 41.561629 -0.784600 7.401500 25.078900 -15.081140 -11.100750 5.803499 -64.475989 -28.633032 61.943918 154.187426 -31.183415 -110.702011 3.434105 4.933544 -26.088021 41.075944 32.188518 20.449700 -7.125000 0.000000 0.000000 5.774100 66.686700 3.021800 10.993954 12.428565 7.637993 78.210047 -23.886408 7.110583 -31.043025 30.907467 -4.945453 -0.773778 -5.168178 12.919016 -10.219383 -18.342773 2.447500 7.125000 0.000000 0.000000 14.928600 -42.711100 0.864000 
-4.777854 18.071637 -2.743592 -4.449108 -6.587372 33.224445 5.481540 -2.551119 -7.882023 -17.885088 -4.235217 -32.323426 4.159141 17.060941 46.572350 -0.153206 3.568481 10.519770 0.318200 -3.626100 -10.027000 -7.487809 0.775032 -7.833531 26.681518 11.164672 -41.410517 3.063142 -12.066551 23.417059 2.019759 -11.294382 2.676504 -0.029000 -1.099600 3.023000 2.536629 -0.851603 7.237674 8.534163 2.488105 -50.963324 -4.459549 -1.202972 -0.784977 4.557014 9.394616 -10.426864 -1.425887 17.275610 41.502242 -0.772800 7.382900 24.986200 -15.060555 -11.068896 5.801786 -64.557104 -28.602861 62.101000 154.124603 -31.245216 -110.678803 3.469851 4.891472 -26.263222 41.273006 31.693086 20.335000 -7.125000 0.000000 0.000000 6.178100 66.261600 3.173600 11.049730 12.451485 7.660448 78.268979 -24.029964 7.646588 -31.250100 31.060036 -4.956927 -0.838197 -5.009867 12.332320 -10.707170 -17.288047 2.349000 7.125000 0.000000 0.000000 14.392700 -41.843500 1.147000 
-4.802436 18.073625 -2.672774 -4.627545 -6.621457 33.337597 5.677081 -2.601062 -8.024098 -17.674923 -4.025920 -33.385760 4.713326 17.561957 48.149007 -0.433943 4.405482 10.654850 0.291900 -3.474400 -9.602500 -7.507672 0.730804 -7.773499 27.088243 11.109267 -41.221538 3.091209 -11.967040 23.266248 1.956047 -11.074178 2.644028 -0.026900 -1.058100 2.908600 2.810742 -0.700294 7.277212 8.357930 2.579021 -50.960307 -4.652987 -1.095938 -0.805008 4.582206 9.357370 -10.477127 -1.321493 17.153434 41.435655 -0.734100 7.356500 24.867400 -15.041067 -11.036528 5.801623 -64.612557 -28.591957 62.215481 154.069135 -31.294981 -110.660060 3.499264 4.851030 -26.404508 41.381057 31.259858 20.189000 -7.125000 0.000000 0.000000 6.435300 65.866600 3.247600 11.102678 12.465777 7.674163 78.323115 -24.086774 7.995836 -31.466332 31.268483 -5.002261 -0.785554 -4.979149 12.256466 -10.473274 -17.133441 2.285400 7.125000 0.000000 0.000000 14.535900 -41.716900 1.205500 
-4.826495 18.075298 -2.602061 -4.785913 -6.663669 33.430776 5.862970 -2.643400 -8.159338 -17.497242 -3.847430 -34.411191 5.258149 18.029796 49.631496 -0.812239 5.524209 10.337194 0.265100 -3.312100 -9.148800 -7.524435 0.689861 -7.715102 27.436800 11.105602 -41.004434 3.114137 -11.874276 23.129598 1.915166 -10.920982 2.568684 -0.025100 -1.022300 2.810300 3.042503 -0.561336 7.335867 8.204739 2.670421 -50.955237 -4.821792 -0.992570 -0.830239 4.608990 9.326087 -10.523209 -1.240100 17.049374 41.369098 -0.705700 7.334500 24.759400 -15.023594 -11.004967 5.797841 -64.661464 -28.548242 62.363712 154.017060 -31.346779 -110.641329 3.531510 4.812047 -26.534593 41.527993 30.824929 20.064900 -7.125000 0.000000 0.000000 6.735500 65.480900 3.339800 11.149781 12.477654 7.690606 78.328001 -24.137087 8.423817 -31.658204 31.445018 -5.037066 -0.781544 -4.913897 12.036372 -10.511813 -16.734090 2.223800 7.125000 0.000000 0.000000 14.444100 -41.389600 1.317000 
-4.850241 18.077391 -2.531033 -4.901728 -6.711499 33.494277 6.035548 -2.678773 -8.285940 -17.365500 -3.708157 -35.394895 5.787516 18.465404 51.024535 -1.273304 6.873615 9.660669 0.227800 -3.072200 -8.479900 -7.542373 0.653359 -7.660841 27.703911 11.152409 -40.762863 3.126115 -11.801944 23.042010 1.900784 -10.840470 2.425369 -0.023500 -0.988900 2.718200 3.223086 -0.440906 7.410515 8.051228 2.742872 -50.949783 -4.955884 -0.902169 -0.852387 4.643870 9.301117 -10.567344 -1.182006 16.964156 41.309030 -0.687700 7.317500 24.668400 -15.007823 -10.977146 5.791683 -64.694780 -28.463607 62.539154 153.965835 -31.402360 -110.622885 3.567614 4.769009 -26.632238 41.664963 30.371034 19.921200 -7.125000 0.000000 0.000000 7.017600 65.070200 3.413500 11.193374 12.483606 7.708122 78.289571 -24.176097 8.913170 -31.827526 31.596025 -5.064583 -0.815814 -4.824631 11.703523 -10.760345 -16.158952 2.163300 7.125000 0.000000 0.000000 14.177500 -40.917000 1.460700 
-4.874195 18.079483 -2.459483 -4.963589 -6.761032 33.526853 6.191185 -2.708342 -8.402661 -17.280692 -3.601277 -36.334318 6.282218 18.861646 52.293732 -1.785381 8.365769 8.789103 0.175300 -2.697100 -7.436600 -7.561191 0.623384 -7.612879 27.891120 11.220136 -40.501132 3.128383 -11.746902 22.997782 1.907452 -10.816637 2.225148 -0.021700 -0.951500 2.615300 3.343531 -0.342125 7.497744 7.885557 2.786686 -50.945308 -5.047328 -0.829683 -0.867447 4.681824 9.278810 -10.608820 -1.142237 16.889598 41.254314 -0.677300 7.302000 24.587100 -14.993048 -10.953342 5.784354 -64.714294 -28.339973 62.744814 153.906291 -31.470615 -110.600806 3.609382 4.717441 -26.669908 41.764957 29.888112 19.734800 -7.125000 0.000000 0.000000 7.248300 64.615500 3.449800 11.235147 12.479892 7.724373 78.212466 -24.188679 9.399737 -31.988391 31.747146 -5.096360 -0.844746 -4.751259 11.430737 -10.964265 -15.694166 2.112800 7.125000 0.000000 0.000000 13.964100 -40.535600 1.572100 
